<svg width="40" height="36" viewBox="0 0 40 36" fill="none" xmlns="http://www.w3.org/2000/svg">
<rect width="40" height="36" rx="11.9385" fill="#082344"/>
<path d="M25.5452 26.2449L23.4685 24.2366L22.3379 25.33L25.5452 28.4316L31.9599 22.2283L30.8293 21.135L25.5452 26.2449Z" fill="white"/>
<path d="M19.9313 26.8805H14.3185V8.2708H20.7332V12.9232C20.7344 13.3342 20.9038 13.7279 21.2043 14.0185C21.5048 14.309 21.9119 14.4728 22.3368 14.474H27.1478V19.1265H28.7515V12.9232C28.7543 12.8213 28.7343 12.72 28.6928 12.6263C28.6513 12.5326 28.5892 12.4487 28.511 12.3804L22.8981 6.95261C22.8275 6.87689 22.7408 6.81688 22.6439 6.77672C22.547 6.73656 22.4422 6.7172 22.3368 6.71999H14.3185C13.8936 6.72122 13.4864 6.885 13.1859 7.17557C12.8855 7.46614 12.7161 7.85988 12.7148 8.2708V26.8805C12.7161 27.2914 12.8855 27.6852 13.1859 27.9758C13.4864 28.2663 13.8936 28.4301 14.3185 28.4313H19.9313V26.8805ZM22.3368 8.58096L26.8271 12.9232H22.3368V8.58096Z" fill="white"/>
</svg>
