<svg width="12" height="26" viewBox="0 0 12 26" fill="none" xmlns="http://www.w3.org/2000/svg">
<path fill-rule="evenodd" clip-rule="evenodd" d="M2.86565 13.096V24.7855C2.86565 24.8253 2.87348 24.8646 2.88864 24.9013C2.9038 24.9381 2.92601 24.9717 2.95402 24.9998C2.98203 25.028 3.01523 25.0503 3.05183 25.0655C3.08843 25.0807 3.12771 25.0886 3.16733 25.0886H7.50824C7.58824 25.0886 7.66488 25.0566 7.72146 24.9998C7.77803 24.943 7.80983 24.8659 7.80983 24.7855V12.9037H10.9588C11.034 12.904 11.1066 12.8763 11.1624 12.8257C11.2182 12.7752 11.2532 12.7057 11.2605 12.6306L11.5621 9.04674C11.5652 9.00513 11.5596 8.96342 11.5459 8.92407C11.5321 8.88471 11.5103 8.84852 11.482 8.81799C11.4537 8.78747 11.4193 8.76315 11.3812 8.74655C11.3431 8.72996 11.3021 8.72155 11.2605 8.72166H7.80983V6.17983C7.81177 5.89303 7.92659 5.61849 8.1292 5.41638C8.33182 5.21427 8.60578 5.10067 8.89135 5.10068H11.312C11.3522 5.10166 11.3923 5.09453 11.4297 5.07975C11.4672 5.06497 11.5013 5.04304 11.5301 5.01481C11.5588 4.98658 11.5818 4.95283 11.5974 4.91559C11.613 4.87834 11.621 4.83838 11.621 4.79797V1.22137C11.621 1.13906 11.5885 1.0602 11.5305 1.002C11.4725 0.943798 11.3939 0.911078 11.312 0.911078H7.21392C6.64325 0.910107 6.07793 1.02219 5.55041 1.24085C5.0229 1.4595 4.54351 1.7805 4.13964 2.18542C3.73577 2.59034 3.4154 3.07142 3.19678 3.60084C2.97817 4.13025 2.86564 4.69748 2.86565 5.27061V8.72166H0.658411C0.618182 8.72067 0.578208 8.7278 0.540756 8.74258C0.503304 8.75737 0.469141 8.7793 0.440345 8.80753C0.41155 8.83576 0.388693 8.8695 0.373076 8.90675C0.357458 8.94399 0.349353 8.98395 0.349365 9.02437V12.601C0.349353 12.6414 0.357458 12.6813 0.373076 12.7186C0.388693 12.7558 0.41155 12.7896 0.440345 12.8178C0.469141 12.846 0.503304 12.868 0.540756 12.8828C0.578208 12.8975 0.618182 12.9047 0.658411 12.9037H2.86565V13.096Z" fill="#0A3468"/>
</svg>
