<svg width="26" height="26" viewBox="0 0 26 26" fill="none" xmlns="http://www.w3.org/2000/svg">
<path d="M2.55275 18.1948L2.55275 18.1945L2.55275 8.16751V8.16716C2.55376 7.44779 2.69598 6.73535 2.97129 6.07115C3.2466 5.40694 3.64956 4.8039 4.15728 4.29615C4.66499 3.78841 5.26752 3.386 5.93032 3.1122C6.59304 2.83844 7.30296 2.69872 8.01953 2.70071M2.55275 18.1948L18.04 2.95071V2.70071H18.0396H8.01953M2.55275 18.1948C2.55376 18.9142 2.69599 19.6263 2.97129 20.2905C3.24658 20.9546 3.64953 21.5581 4.15728 22.0658C4.66504 22.5736 5.26759 22.9757 5.93032 23.2494C6.59285 23.5231 7.30264 23.6632 8.01918 23.6613L2.55275 18.1948ZM8.01953 2.70071C8.01964 2.70071 8.01976 2.70071 8.01987 2.70071L8.01916 2.95071V2.70071H8.01953ZM13.014 17.5872H13.0149L13.0443 17.5872L13.0461 17.5872C14.1622 17.5789 15.2299 17.1291 16.0173 16.3353C16.8048 15.5415 17.2485 14.468 17.2526 13.3481V13.3471C17.2526 12.5094 17.0054 11.6904 16.5422 10.9934C16.079 10.2965 15.4205 9.75307 14.6496 9.43156C13.8787 9.11004 13.0302 9.02519 12.2112 9.18761C11.3923 9.35002 10.6397 9.7524 10.0486 10.3439C9.45743 10.9354 9.05422 11.6895 8.8896 12.5107C8.72498 13.332 8.80628 14.1837 9.12339 14.9586C9.44048 15.7335 9.9792 16.397 10.6716 16.865C11.3641 17.3329 12.1792 17.5841 13.014 17.5872ZM25.3314 8.16823L25.3314 8.16898L25.3902 18.172C25.3902 18.1723 25.3902 18.1726 25.3902 18.173C25.3882 19.14 25.1966 20.0972 24.8262 20.9897C24.4556 21.8826 23.9135 22.6933 23.2309 23.3755C22.5483 24.0578 21.7386 24.5981 20.8481 24.9658C19.9575 25.3335 19.0035 25.5212 18.0407 25.5184H18.04H8.01916H8.01867C6.07841 25.5222 4.21546 24.7539 2.83786 23.381C1.46038 22.0083 0.680426 20.1431 0.668945 18.1937V8.16787C0.674695 6.21471 1.45222 4.34367 2.83039 2.96626C4.20861 1.5888 6.07474 0.817446 8.01867 0.821242H8.01916L17.9812 0.821243L17.9817 0.821242C19.9256 0.817446 21.7917 1.5888 23.1699 2.96626C24.5482 4.34376 25.3257 6.21494 25.3314 8.16823ZM8.01916 25.7684H18.04L0.418945 18.1945C0.43062 20.2098 1.23691 22.1386 2.66139 23.5581C4.08587 24.9777 6.01243 25.7723 8.01916 25.7684ZM17.9805 23.6613C17.9807 23.6613 17.9809 23.6613 17.9812 23.6613L17.9805 23.6613ZM18.9583 5.6756C19.1591 5.54086 19.3952 5.46906 19.6366 5.46906C19.9602 5.46906 20.2707 5.59823 20.4999 5.82841C20.7291 6.05861 20.8581 6.37093 20.8581 6.69689C20.8581 6.93995 20.7863 7.17763 20.6519 7.37959C20.5176 7.58146 20.3268 7.7385 20.1037 7.83133C19.8807 7.92412 19.6352 7.94836 19.3984 7.90106C19.1617 7.85377 18.9441 7.737 18.7732 7.56537C18.6023 7.3937 18.4858 7.17496 18.4385 6.9366C18.3913 6.69826 18.4156 6.45137 18.5082 6.22684C18.6009 6.00225 18.7576 5.81032 18.9583 5.6756ZM9.71503 8.38585C10.691 7.7265 11.8394 7.37222 13.0154 7.36794H13.0437C14.6191 7.37557 16.1279 8.00803 17.2416 9.12782C18.3553 10.2476 18.9836 11.7643 18.9893 13.3475C18.9892 14.5292 18.6405 15.6843 17.9873 16.667C17.334 17.6498 16.4055 18.4163 15.3193 18.8693C14.233 19.3224 13.0376 19.4417 11.8837 19.2128C10.7298 18.9839 9.66916 18.417 8.83583 17.583C8.00247 16.749 7.43377 15.6855 7.20162 14.5269C6.96948 13.3683 7.08435 12.1666 7.53176 11.0736C7.97916 9.98054 8.73898 9.04526 9.71503 8.38585Z" fill="#0A3468" stroke="#082344" stroke-width="0.5"/>
</svg>
