<svg width="20" height="20" viewBox="0 0 20 20" fill="none" xmlns="http://www.w3.org/2000/svg">
<path d="M5.07063 0.819824C3.79352 0.819824 1.9359 2.18581 1.47149 3.09647C0.807391 4.39871 0.916991 4.90868 1.35539 6.28378C1.9359 8.10509 3.63748 11.3334 5.99944 13.569C9.36638 16.7564 12.5011 18.1223 13.8943 18.5777C15.2876 19.033 16.7969 18.5777 17.7257 17.667C18.6545 16.7564 19.5833 15.8457 18.5384 14.4797C17.7981 13.5117 16.7189 12.3925 15.4037 11.7477C14.2073 11.1613 13.494 11.3744 13.0816 12.2031C12.8531 12.6611 12.7825 13.5381 12.6172 14.0244C12.4082 14.6382 11.5723 14.4797 10.6435 14.0244C9.75463 13.5882 7.50876 11.7477 5.65114 9.01575C4.49941 7.32284 6.34032 7.31282 7.50876 6.73911C8.43757 6.28378 8.7255 5.23652 7.97317 4.00713C6.57995 1.73048 6.11555 0.819824 5.07063 0.819824Z" fill="white" stroke="white"/>
</svg>
