<svg width="36" height="36" viewBox="0 0 36 36" fill="none" xmlns="http://www.w3.org/2000/svg">
<rect width="36" height="36" rx="18" fill="#66B2FE"/>
<path d="M13.0174 9C11.757 9 9.92366 10.375 9.46533 11.2917C8.80991 12.6025 8.91808 13.1158 9.35074 14.5C9.92366 16.3333 11.603 19.5829 13.9341 21.8333C17.257 25.0417 20.3507 26.4167 21.7257 26.875C23.1007 27.3333 24.5903 26.875 25.507 25.9583C26.4237 25.0417 27.3403 24.125 26.3091 22.75C25.5785 21.7756 24.5133 20.649 23.2153 20C22.0347 19.4097 21.3307 19.6242 20.9237 20.4583C20.6982 20.9194 20.6285 21.8022 20.4653 22.2917C20.2591 22.9095 19.4341 22.75 18.5174 22.2917C17.6402 21.8526 15.4237 20 13.5903 17.25C12.4537 15.5459 14.2705 15.5358 15.4237 14.9583C16.3403 14.5 16.6245 13.4458 15.882 12.2083C14.507 9.91667 14.0487 9 13.0174 9Z" stroke="white" stroke-width="1.5"/>
</svg>
